<svg xmlns="http://www.w3.org/2000/svg" width="30" height="29.236" viewBox="0 0 30 29.236">
  <path id="Path_14" data-name="Path 14" d="M220.585,110.744c.266-.053.532-.106.816-.177a10.458,10.458,0,0,0,3.514-1.491,6.469,6.469,0,0,0,2.769-4.118,8.28,8.28,0,0,0,.124-2.289,7.913,7.913,0,0,0-.6-2.538,6.472,6.472,0,0,0-1.242-1.917.256.256,0,0,1-.036-.053,4.879,4.879,0,0,0-.018-3.958c-.071-.142-.177-.284-.248-.426a.173.173,0,0,0-.16-.071,6,6,0,0,0-3.55,1.26c-.266.2-.5.444-.745.657-.053.036-.071.053-.142.036a10.466,10.466,0,0,0-2.573-.479,14.753,14.753,0,0,0-2.343.018,9.785,9.785,0,0,0-2.36.479.116.116,0,0,1-.142-.036,6.085,6.085,0,0,0-3.319-1.846,8.96,8.96,0,0,0-.994-.107.219.219,0,0,0-.142.071,3.535,3.535,0,0,0-.621,1.562,4.844,4.844,0,0,0,.177,2.254c.071.2.177.39.266.6a3.47,3.47,0,0,0-.319.373,6.828,6.828,0,0,0-1.58,3.621,7.774,7.774,0,0,0,.2,3.319,6.52,6.52,0,0,0,2.5,3.479,9.484,9.484,0,0,0,3.283,1.491c.39.107.781.178,1.171.284a5,5,0,0,0-.177.55,5.419,5.419,0,0,0-.142,1.313.2.2,0,0,1-.16.213,4.349,4.349,0,0,1-1.721.16,3.909,3.909,0,0,1-1.6-.5,3.162,3.162,0,0,1-1.1-1.065,3.118,3.118,0,0,0-1.935-1.438,1.593,1.593,0,0,0-.816-.018.63.63,0,0,0-.16.071.192.192,0,0,0-.089.266,1.14,1.14,0,0,0,.178.231.853.853,0,0,0,.2.16,4.089,4.089,0,0,1,1.455,1.828,5.278,5.278,0,0,0,.515.994,4.334,4.334,0,0,0,2.733,1.651,6.49,6.49,0,0,0,2.414-.071h.053v1.97a1.335,1.335,0,0,1-.461,1.029.875.875,0,0,1-.941.2,14.921,14.921,0,0,1-8.164-6.762,14.437,14.437,0,0,1-1.775-5.076,15,15,0,0,1,12.654-17.162,15.811,15.811,0,0,1,3.425-.106,15,15,0,0,1,13.169,10.826,14.186,14.186,0,0,1,.55,4.81,14.979,14.979,0,0,1-8.235,12.69c-.586.3-1.207.532-1.828.781a.966.966,0,0,1-1.189-.373,1.376,1.376,0,0,1-.266-.834v-4.508a4.906,4.906,0,0,0-.106-1.242A2.2,2.2,0,0,0,220.585,110.744Z" transform="translate(-202.392 -89.132)" fill="#111"/>
</svg>
