<svg xmlns="http://www.w3.org/2000/svg" width="64" height="64" viewBox="0 0 64 64">
  <g id="Group_36" data-name="Group 36" transform="translate(7942 23070)">
    <circle id="Ellipse_8" data-name="Ellipse 8" cx="32" cy="32" r="32" transform="translate(-7942 -23070)" fill="#111"/>
    <g id="publab" transform="translate(-8080.433 -23318.6)">
      <path id="Path_24" data-name="Path 24" d="M272.5,263.1v-27h4.6v19.1h6.3v3.7h-3.6c-1.9,0-2.9.8-2.9,2.6v1.6h-4.4Z" transform="translate(-121 31)" fill="#ddd"/>
      <path id="Path_25" data-name="Path 25" d="M300.1,245.4c0-2.9,2.3-4.2,5.3-4.2h3.7a3.4,3.4,0,0,0-.1-1c-.3-1.2-1.2-1.9-2.9-1.9a4.173,4.173,0,0,0-3.4,2l-2.2-1.5c1.6-2.2,3.2-3.1,5.7-3.1,3.6,0,5.6,2.2,5.6,5.4v8.1h-2.6l-.1-1.6a5.618,5.618,0,0,1-4.4,1.9A4.181,4.181,0,0,1,300.1,245.4Zm8.6-.5a4.234,4.234,0,0,0,.4-1.2h-3.5c-1.5,0-2.4.6-2.4,1.6,0,.9,1.1,1.6,2.2,1.6A3.538,3.538,0,0,0,308.7,244.9Z" transform="translate(-142.017 31.4)" fill="#ddd"/>
      <path id="Path_26" data-name="Path 26" d="M331.1,236.2h9.4c5.4,0,8.5,2.6,8.5,6.8a6.19,6.19,0,0,1-3,5.6c2.9,1,4.4,3.3,4.4,6.7,0,4.9-3.3,7.9-8.8,7.9H331v-27Zm9.4,10.7c2.4,0,3.7-1,3.7-3.1,0-2-1.4-3.2-3.7-3.2H336v6.3Zm.8,11.8c2.7,0,4.3-1.5,4.3-3.8s-1.5-3.5-4.3-3.5H336v7.3Z" transform="translate(-159.035 30.9)" fill="#ddd"/>
    </g>
  </g>
</svg>
