<?xml version="1.0" encoding="UTF-8" standalone="no"?>
<!-- Created with Inkscape (http://www.inkscape.org/) -->

<svg
   xmlns:dc="http://purl.org/dc/elements/1.1/"
   xmlns:cc="http://creativecommons.org/ns#"
   xmlns:rdf="http://www.w3.org/1999/02/22-rdf-syntax-ns#"
   xmlns:svg="http://www.w3.org/2000/svg"
   xmlns="http://www.w3.org/2000/svg"
   xmlns:sodipodi="http://sodipodi.sourceforge.net/DTD/sodipodi-0.dtd"
   xmlns:inkscape="http://www.inkscape.org/namespaces/inkscape"
   width="24"
   height="24"
   viewBox="0 0 6.3499999 6.3500002"
   version="1.1"
   id="svg8"
   inkscape:version="0.92.3 (2405546, 2018-03-11)"
   sodipodi:docname="doc_icon-24px.svg">
  <defs
     id="defs2" />
  <sodipodi:namedview
     id="base"
     pagecolor="#ffffff"
     bordercolor="#666666"
     borderopacity="1.0"
     inkscape:pageopacity="0.0"
     inkscape:pageshadow="2"
     inkscape:zoom="7.919596"
     inkscape:cx="17.152982"
     inkscape:cy="20.403963"
     inkscape:document-units="mm"
     inkscape:current-layer="layer1"
     showgrid="false"
     inkscape:snap-global="false"
     units="px"
     inkscape:window-width="1920"
     inkscape:window-height="1001"
     inkscape:window-x="-9"
     inkscape:window-y="1341"
     inkscape:window-maximized="1" />
  <metadata
     id="metadata5">
    <rdf:RDF>
      <cc:Work
         rdf:about="">
        <dc:format>image/svg+xml</dc:format>
        <dc:type
           rdf:resource="http://purl.org/dc/dcmitype/StillImage" />
        <dc:title />
      </cc:Work>
    </rdf:RDF>
  </metadata>
  <g
     inkscape:label="Layer 1"
     inkscape:groupmode="layer"
     id="layer1"
     transform="translate(0,-290.64998)">
    <path
       style="opacity:1;fill:#ffffff;fill-opacity:1;fill-rule:nonzero;stroke:none;stroke-width:0.32837826;stroke-miterlimit:4;stroke-dasharray:none;stroke-dashoffset:0;stroke-opacity:1"
       d="m 1.2144549,290.65303 c -0.32245028,0 -0.582054,0.25955 -0.582054,0.58201 v 5.1771 c 0,0.32246 0.25960372,0.58206 0.582054,0.58206 h 3.9211496 c 0.3224503,0 0.5819946,-0.2596 0.5819946,-0.58206 v -3.24526 c -9.742e-4,-0.0807 -0.025605,-0.0904 -0.046025,-0.11291 l -2.3319044,-2.33189 c -0.039621,-0.0396 -0.1001017,-0.0582 -0.1684657,-0.0691 z m 0.3654496,0.52514 h 1.4729637 v 1.91151 c 0,0.20903 0.1682725,0.3773 0.3772959,0.3773 h 1.8009786 v 2.51641 c 0,0.26903 -0.2104374,0.48568 -0.4718862,0.48568 h -3.179352 c -0.2614488,0 -0.4719453,-0.21665 -0.4719453,-0.48568 v -4.31965 c 0,-0.26905 0.2104965,-0.48557 0.4719453,-0.48557 z"
       id="rect8450"
       inkscape:connector-curvature="0"
       sodipodi:nodetypes="ssssssccccsscsscssssss" />
  </g>
</svg>
